<svg width="2000" height="2000" fill="none" xmlns="http://www.w3.org/2000/svg"><path fill="#212738" d="M0 0h2000v2000H0z"/><path d="M572.836 825.648h86.016V706.352c0-42.667 7.339-76.971 22.016-102.912 15.019-25.941 33.963-44.715 56.832-56.32 23.211-11.947 46.933-17.92 71.168-17.92 29.355 0 51.883 4.096 67.584 12.288 16.043 8.192 25.6 13.653 28.672 16.384l-35.84 68.096c-1.707-2.048-6.997-5.803-15.872-11.264-8.875-5.461-20.992-8.192-36.352-8.192-11.264 0-22.187 2.731-32.768 8.192s-19.456 16.043-26.624 31.744c-7.168 15.701-10.752 39.083-10.752 70.144v109.056h119.808v76.288H746.916V1246h-88.064V901.936h-86.016v-76.288Zm575.124 645.122c-33.11 0-63.14-3.42-90.11-10.24-26.62-6.83-50-16.56-70.142-29.19-19.797-12.28-35.669-26.79-47.616-43.52l58.368-55.8c6.49 8.87 15.19 18.26 26.11 28.16 11.27 10.24 26.46 18.94 45.57 26.11 19.11 7.17 44.03 10.75 74.75 10.75 30.04 0 55.47-6.49 76.29-19.46 20.82-12.63 36.69-29.86 47.62-51.71 10.92-21.84 16.38-46.42 16.38-73.73v-13.82h87.04v19.46c0 46.42-10.07 85.33-30.21 116.73-19.8 31.75-46.59 55.64-80.38 71.68-33.79 16.39-71.68 24.58-113.67 24.58ZM1285.18 1246v-81.92c-2.73 8.53-10.75 20.31-24.06 35.33-12.97 15.02-30.89 28.67-53.76 40.96-22.53 11.94-49.16 17.92-79.88 17.92-38.91 0-74.24-9.22-105.98-27.65-31.403-18.43-56.491-44.2-75.264-77.31-18.432-33.45-27.648-72.54-27.648-117.25 0-44.715 9.216-83.627 27.648-116.736 18.773-33.451 43.861-59.392 75.264-77.824 31.74-18.773 67.07-28.16 105.98-28.16 30.38 0 56.67 5.461 78.85 16.384 22.53 10.923 40.45 23.552 53.76 37.888 13.66 14.336 21.68 26.624 24.07 36.864v-78.848h88.06V1246h-87.04Zm-278.53-209.92c0 30.38 6.66 56.66 19.97 78.85 13.31 22.18 30.55 39.42 51.71 51.71 21.51 11.95 44.38 17.92 68.61 17.92 25.94 0 49.15-6.14 69.63-18.43 20.48-12.29 36.7-29.53 48.64-51.71 11.95-22.53 17.92-48.64 17.92-78.34 0-29.7-5.97-55.637-17.92-77.824-11.94-22.528-28.16-39.936-48.64-52.224-20.48-12.629-43.69-18.944-69.63-18.944-24.23 0-47.1 6.144-68.61 18.432-21.16 12.288-38.4 29.525-51.71 51.712-13.31 22.187-19.97 48.468-19.97 78.848Z" fill="#F97068"/></svg>